<svg version="1.1" viewBox="0.0 0.0 500.0 500.0" fill="none" stroke="none" stroke-linecap="square" stroke-miterlimit="10" xmlns:xlink="http://www.w3.org/1999/xlink" xmlns="http://www.w3.org/2000/svg"><clipPath id="p.0"><path d="m0 0l500.0 0l0 500.0l-500.0 0l0 -500.0z" clip-rule="nonzero"/></clipPath><g clip-path="url(#p.0)"><path fill="#000000" fill-opacity="0.0" d="m0 0l500.0 0l0 500.0l-500.0 0z" fill-rule="evenodd"/><path fill="#b7b7b7" d="m14.427821 250.0l0 0c0 -130.61752 105.88642 -236.50394 236.50394 -236.50394l0 0c62.72473 0 122.88043 24.917309 167.23352 69.2704c44.35312 44.35309 69.27042 104.50879 69.27042 167.23354l0 0c0 130.61752 -105.88641 236.50394 -236.50394 236.50394l0 0c-130.61752 0 -236.50394 -105.88641 -236.50394 -236.50394z" fill-rule="evenodd"/><path stroke="#000000" stroke-width="8.0" stroke-linejoin="round" stroke-linecap="butt" d="m14.427821 250.0l0 0c0 -130.61752 105.88642 -236.50394 236.50394 -236.50394l0 0c62.72473 0 122.88043 24.917309 167.23352 69.2704c44.35312 44.35309 69.27042 104.50879 69.27042 167.23354l0 0c0 130.61752 -105.88641 236.50394 -236.50394 236.50394l0 0c-130.61752 0 -236.50394 -105.88641 -236.50394 -236.50394z" fill-rule="evenodd"/><path fill="#000000" fill-opacity="0.0" d="m5.4960628 134.92914l473.00787 0l0 214.14172l-473.00787 0z" fill-rule="evenodd"/><path fill="#ffffff" d="m108.62601 311.1885q-17.859375 0 -32.15625 -7.96875q-14.296875 -7.96875 -22.53125 -22.0q-8.234375 -14.046875 -8.234375 -31.5625q0 -17.5 8.234375 -31.53125q8.234375 -14.046875 22.53125 -22.015625q14.296875 -7.984375 32.15625 -7.984375q13.171875 0 24.265625 4.25q11.09375 4.25 18.890625 12.5625l-5.546875 5.734375q-14.5625 -14.390625 -37.265625 -14.390625q-15.25 0 -27.734375 6.9375q-12.484375 6.921875 -19.59375 19.140625q-7.09375 12.21875 -7.09375 27.296875q0 15.09375 7.09375 27.3125q7.109375 12.21875 19.59375 19.15625q12.484375 6.921875 27.734375 6.921875q22.53125 0 37.265625 -14.5625l5.546875 5.71875q-7.796875 8.328125 -18.984375 12.65625q-11.171875 4.328125 -24.171875 4.328125zm233.46484 -122.1875l-41.078125 121.328125l-9.359375 0l-37.609375 -108.84375l-37.78125 108.84375l-9.359375 0l-41.25 -121.328125l9.359375 0l36.921875 109.1875l37.953125 -109.1875l8.484375 0l37.796875 109.375l37.265625 -109.375l8.65625 0zm25.47992 0l8.84375 0l0 113.359375l69.859375 0l0 7.96875l-78.703125 0l0 -121.328125z" fill-rule="nonzero"/></g></svg>