<svg version="1.1" viewBox="0.0 0.0 810.0 800.0" fill="none" stroke="none" stroke-linecap="square" stroke-miterlimit="10" xmlns:xlink="http://www.w3.org/1999/xlink" xmlns="http://www.w3.org/2000/svg"><clipPath id="p.0"><path d="m0 0l810.0 0l0 800.0l-810.0 0l0 -800.0z" clip-rule="nonzero"/></clipPath><g clip-path="url(#p.0)"><path fill="#000000" fill-opacity="0.0" d="m0 0l810.0 0l0 800.0l-810.0 0z" fill-rule="evenodd"/><path fill="#000000" d="m351.51733 559.8629l378.4095 -214.5039l-347.82678 261.2126z" fill-rule="evenodd"/><path stroke="#000000" stroke-width="16.0" stroke-linejoin="round" stroke-linecap="butt" d="m351.51733 559.8629l378.4095 -214.5039l-347.82678 261.2126z" fill-rule="evenodd"/><path fill="#000000" fill-opacity="0.0" d="m156.67717 261.88977l-45.25894 0l0 -154.89764l-45.26075 0" fill-rule="evenodd"/><path stroke="#000000" stroke-width="16.0" stroke-linejoin="round" stroke-linecap="butt" d="m156.67717 261.88977l-45.25894 0l0 -154.89764l-45.26075 0" fill-rule="evenodd"/><path fill="#000000" fill-opacity="0.0" d="m579.3228 261.88977l82.94824 0l0 -219.05513l82.94153 0" fill-rule="evenodd"/><path stroke="#000000" stroke-width="16.0" stroke-linejoin="round" stroke-linecap="butt" d="m579.3228 261.88977l82.94824 0l0 -219.05513l82.94153 0" fill-rule="evenodd"/><path fill="#000000" fill-opacity="0.0" d="m218.57219 411.31757l0 117.38031l-86.89508 0l0 83.407104l25.005325 0" fill-rule="evenodd"/><path stroke="#000000" stroke-width="16.0" stroke-linejoin="round" stroke-linecap="butt" d="m218.57219 411.31757l0 117.38031l-86.89508 0l0 83.407104l25.005325 0" fill-rule="evenodd"/><path fill="#000000" fill-opacity="0.0" d="m517.4278 411.31757l0 86.89545l271.05548 0l0 -206.26553l-25.00824 0" fill-rule="evenodd"/><path stroke="#000000" stroke-width="16.0" stroke-linejoin="round" stroke-linecap="butt" d="m517.4278 411.31757l0 86.89545l271.05548 0l0 -206.26553l-25.00824 0" fill-rule="evenodd"/><path fill="#ff9900" d="m10.317585 106.97638l0 0c0 -15.420486 12.500774 -27.921265 27.92126 -27.921265l0 0c7.405178 0 14.507061 2.9416962 19.743313 8.177948c5.236252 5.236252 8.177944 12.338135 8.177944 19.743317l0 0c0 15.420486 -12.500771 27.921265 -27.921257 27.921265l0 0c-15.420486 0 -27.92126 -12.500778 -27.92126 -27.921265z" fill-rule="evenodd"/><path stroke="#000000" stroke-width="8.0" stroke-linejoin="round" stroke-linecap="butt" d="m10.317585 106.97638l0 0c0 -15.420486 12.500774 -27.921265 27.92126 -27.921265l0 0c7.405178 0 14.507061 2.9416962 19.743313 8.177948c5.236252 5.236252 8.177944 12.338135 8.177944 19.743317l0 0c0 15.420486 -12.500771 27.921265 -27.921257 27.921265l0 0c-15.420486 0 -27.92126 -12.500778 -27.92126 -27.921265z" fill-rule="evenodd"/><path fill="#0000ff" d="m156.67717 612.105l0 0c0 -15.420471 12.500763 -27.921265 27.92125 -27.921265l0 0c7.405182 0 14.507065 2.9417114 19.743317 8.1779785c5.236252 5.236206 8.177948 12.338135 8.177948 19.743286l0 0c0 15.420471 -12.500778 27.921265 -27.921265 27.921265l0 0c-15.420486 0 -27.92125 -12.500793 -27.92125 -27.921265z" fill-rule="evenodd"/><path stroke="#000000" stroke-width="8.0" stroke-linejoin="round" stroke-linecap="butt" d="m156.67717 612.105l0 0c0 -15.420471 12.500763 -27.921265 27.92125 -27.921265l0 0c7.405182 0 14.507065 2.9417114 19.743317 8.1779785c5.236252 5.236206 8.177948 12.338135 8.177948 19.743286l0 0c0 15.420471 -12.500778 27.921265 -27.921265 27.921265l0 0c-15.420486 0 -27.92125 -12.500793 -27.92125 -27.921265z" fill-rule="evenodd"/><path fill="#ffff00" d="m745.21783 42.818897l0 0c0 -15.420486 12.500793 -27.92126 27.921265 -27.92126l0 0c7.4052124 0 14.50708 2.9416952 19.743347 8.177949c5.236206 5.236252 8.1779175 12.338133 8.1779175 19.74331l0 0c0 15.420486 -12.500793 27.92126 -27.921265 27.92126l0 0c-15.420471 0 -27.921265 -12.500774 -27.921265 -27.92126z" fill-rule="evenodd"/><path stroke="#000000" stroke-width="8.0" stroke-linejoin="round" stroke-linecap="butt" d="m745.21783 42.818897l0 0c0 -15.420486 12.500793 -27.92126 27.921265 -27.92126l0 0c7.4052124 0 14.50708 2.9416952 19.743347 8.177949c5.236206 5.236252 8.1779175 12.338133 8.1779175 19.74331l0 0c0 15.420486 -12.500793 27.92126 -27.921265 27.92126l0 0c-15.420471 0 -27.921265 -12.500774 -27.921265 -27.92126z" fill-rule="evenodd"/><path fill="#6aa84f" d="m707.64044 291.9475l0 0c0 -15.420502 12.500732 -27.921265 27.921265 -27.921265l0 0c7.4051514 0 14.507019 2.9417114 19.743286 8.177948c5.236267 5.236267 8.1779175 12.338135 8.1779175 19.743317l0 0c0 15.420471 -12.500732 27.921265 -27.921204 27.921265l0 0c-15.420532 0 -27.921265 -12.500793 -27.921265 -27.921265z" fill-rule="evenodd"/><path stroke="#000000" stroke-width="8.0" stroke-linejoin="round" stroke-linecap="butt" d="m707.64044 291.9475l0 0c0 -15.420502 12.500732 -27.921265 27.921265 -27.921265l0 0c7.4051514 0 14.507019 2.9417114 19.743286 8.177948c5.236267 5.236267 8.1779175 12.338135 8.1779175 19.743317l0 0c0 15.420471 -12.500732 27.921265 -27.921204 27.921265l0 0c-15.420532 0 -27.921265 -12.500793 -27.921265 -27.921265z" fill-rule="evenodd"/><path fill="#000000" fill-opacity="0.0" d="m156.67717 261.88977l0 0c0 -116.71039 94.61246 -211.32285 211.32283 -211.32285l0 0c56.046295 0 109.79709 22.264309 149.4278 61.895023c39.630737 39.630714 61.89502 93.38151 61.89502 149.42783l0 0c0 116.71036 -94.61243 211.32281 -211.32281 211.32281l0 0c-116.71037 0 -211.32283 -94.61246 -211.32283 -211.32281z" fill-rule="evenodd"/><path stroke="#000000" stroke-width="16.0" stroke-linejoin="round" stroke-linecap="butt" d="m156.67717 261.88977l0 0c0 -116.71039 94.61246 -211.32285 211.32283 -211.32285l0 0c56.046295 0 109.79709 22.264309 149.4278 61.895023c39.630737 39.630714 61.89502 93.38151 61.89502 149.42783l0 0c0 116.71036 -94.61243 211.32281 -211.32281 211.32281l0 0c-116.71037 0 -211.32283 -94.61246 -211.32283 -211.32281z" fill-rule="evenodd"/><path fill="#000000" d="m251.3202 217.35957l0 0c0 -17.090378 13.854507 -30.94487 30.9449 -30.94487l0 0c8.207092 0 16.078033 3.260254 21.881317 9.063538c5.8032837 5.803299 9.063538 13.67424 9.063538 21.881332l0 0c0 17.090393 -13.854492 30.944885 -30.944855 30.944885l0 0c-17.090393 0 -30.9449 -13.854492 -30.9449 -30.944885z" fill-rule="evenodd"/><path stroke="#000000" stroke-width="1.0" stroke-linejoin="round" stroke-linecap="butt" d="m251.3202 217.35957l0 0c0 -17.090378 13.854507 -30.94487 30.9449 -30.94487l0 0c8.207092 0 16.078033 3.260254 21.881317 9.063538c5.8032837 5.803299 9.063538 13.67424 9.063538 21.881332l0 0c0 17.090393 -13.854492 30.944885 -30.944855 30.944885l0 0c-17.090393 0 -30.9449 -13.854492 -30.9449 -30.944885z" fill-rule="evenodd"/><path fill="#000000" d="m422.64304 217.35957l0 0c0 -17.090378 13.854492 -30.94487 30.944885 -30.94487l0 0c8.207092 0 16.078064 3.260254 21.881348 9.063538c5.8032837 5.803299 9.063538 13.67424 9.063538 21.881332l0 0c0 17.090393 -13.854492 30.944885 -30.944885 30.944885l0 0c-17.090393 0 -30.944885 -13.854492 -30.944885 -30.944885z" fill-rule="evenodd"/><path stroke="#000000" stroke-width="1.0" stroke-linejoin="round" stroke-linecap="butt" d="m422.64304 217.35957l0 0c0 -17.090378 13.854492 -30.94487 30.944885 -30.94487l0 0c8.207092 0 16.078064 3.260254 21.881348 9.063538c5.8032837 5.803299 9.063538 13.67424 9.063538 21.881332l0 0c0 17.090393 -13.854492 30.944885 -30.944885 30.944885l0 0c-17.090393 0 -30.944885 -13.854492 -30.944885 -30.944885z" fill-rule="evenodd"/><path fill="#000000" fill-opacity="0.0" d="m504.91287 291.6018c-15.92514 58.532867 -67.29849 100.467896 -127.83478 104.34897c-60.536285 3.8810425 -116.844055 -31.150421 -140.11333 -87.17047l131.03523 -54.428604z" fill-rule="evenodd"/><path fill="#000000" fill-opacity="0.0" d="m504.91287 291.6018c-15.92514 58.532867 -67.29849 100.467896 -127.83478 104.34897c-60.536285 3.8810425 -116.844055 -31.150421 -140.11333 -87.17047" fill-rule="evenodd"/><path stroke="#000000" stroke-width="12.0" stroke-linejoin="round" stroke-linecap="butt" d="m504.91287 291.6018c-15.92514 58.532867 -67.29849 100.467896 -127.83478 104.34897c-60.536285 3.8810425 -116.844055 -31.150421 -140.11333 -87.17047" fill-rule="evenodd"/><path fill="#000000" fill-opacity="0.0" d="m229.30899 199.27081c10.765091 -22.384827 34.56964 -35.450333 59.23401 -32.511505c24.664368 2.9388275 44.732452 21.231873 49.9364 45.51947l-56.810547 12.172394z" fill-rule="evenodd"/><path fill="#000000" fill-opacity="0.0" d="m229.30899 199.27081c10.765091 -22.384827 34.56964 -35.450333 59.23401 -32.511505c24.664368 2.9388275 44.732452 21.231873 49.9364 45.51947" fill-rule="evenodd"/><path stroke="#000000" stroke-width="12.0" stroke-linejoin="round" stroke-linecap="butt" d="m229.30899 199.27081c10.765091 -22.384827 34.56964 -35.450333 59.23401 -32.511505c24.664368 2.9388275 44.732452 21.231873 49.9364 45.51947" fill-rule="evenodd"/><path fill="#000000" fill-opacity="0.0" d="m397.5037 208.73552c6.522064 -23.971832 27.561737 -41.14612 52.354095 -42.73558c24.792328 -1.5894623 47.852875 12.757492 57.38269 35.700226l-53.664825 22.290955z" fill-rule="evenodd"/><path fill="#000000" fill-opacity="0.0" d="m397.5037 208.73552c6.522064 -23.971832 27.561737 -41.14612 52.354095 -42.73558c24.792328 -1.5894623 47.852875 12.757492 57.38269 35.700226" fill-rule="evenodd"/><path stroke="#000000" stroke-width="12.0" stroke-linejoin="round" stroke-linecap="butt" d="m397.5037 208.73552c6.522064 -23.971832 27.561737 -41.14612 52.354095 -42.73558c24.792328 -1.5894623 47.852875 12.757492 57.38269 35.700226" fill-rule="evenodd"/><path fill="#000000" fill-opacity="0.0" d="m245.83221 176.65245c-5.496002 0.09312439 -11.465378 -3.7509155 -15.34346 -9.8806305c-3.8780975 -6.1296997 -4.974411 -13.453644 -2.8179321 -18.825241l13.816116 10.971329z" fill-rule="evenodd"/><path fill="#000000" fill-opacity="0.0" d="m245.83221 176.65245c-5.496002 0.09312439 -11.465378 -3.7509155 -15.34346 -9.8806305c-3.8780975 -6.1296997 -4.974411 -13.453644 -2.8179321 -18.825241" fill-rule="evenodd"/><path stroke="#000000" stroke-width="12.0" stroke-linejoin="round" stroke-linecap="butt" d="m245.83221 176.65245c-5.496002 0.09312439 -11.465378 -3.7509155 -15.34346 -9.8806305c-3.8780975 -6.1296997 -4.974411 -13.453644 -2.8179321 -18.825241" fill-rule="evenodd"/><path fill="#000000" fill-opacity="0.0" d="m269.8322 168.65245c-5.496002 0.09312439 -11.465363 -3.7509155 -15.34346 -9.8806305c-3.8780975 -6.1296997 -4.974411 -13.453644 -2.8179321 -18.825241l13.816116 10.971329z" fill-rule="evenodd"/><path fill="#000000" fill-opacity="0.0" d="m269.8322 168.65245c-5.496002 0.09312439 -11.465363 -3.7509155 -15.34346 -9.8806305c-3.8780975 -6.1296997 -4.974411 -13.453644 -2.8179321 -18.825241" fill-rule="evenodd"/><path stroke="#000000" stroke-width="12.0" stroke-linejoin="round" stroke-linecap="butt" d="m269.8322 168.65245c-5.496002 0.09312439 -11.465363 -3.7509155 -15.34346 -9.8806305c-3.8780975 -6.1296997 -4.974411 -13.453644 -2.8179321 -18.825241" fill-rule="evenodd"/><path fill="#000000" fill-opacity="0.0" d="m229.83221 192.65245c-5.496002 0.09312439 -11.465378 -3.7509155 -15.34346 -9.8806305c-3.8780975 -6.1296997 -4.974411 -13.453644 -2.8179321 -18.825241l13.816116 10.971329z" fill-rule="evenodd"/><path fill="#000000" fill-opacity="0.0" d="m229.83221 192.65245c-5.496002 0.09312439 -11.465378 -3.7509155 -15.34346 -9.8806305c-3.8780975 -6.1296997 -4.974411 -13.453644 -2.8179321 -18.825241" fill-rule="evenodd"/><path stroke="#000000" stroke-width="12.0" stroke-linejoin="round" stroke-linecap="butt" d="m229.83221 192.65245c-5.496002 0.09312439 -11.465378 -3.7509155 -15.34346 -9.8806305c-3.8780975 -6.1296997 -4.974411 -13.453644 -2.8179321 -18.825241" fill-rule="evenodd"/><path fill="#000000" fill-opacity="0.0" d="m493.14166 176.65245c5.496002 0.09312439 11.465363 -3.7509155 15.343445 -9.8806305c3.8781128 -6.1296997 4.9744263 -13.453644 2.8179321 -18.825241l-13.816101 10.971329z" fill-rule="evenodd"/><path fill="#000000" fill-opacity="0.0" d="m493.14166 176.65245c5.496002 0.09312439 11.465363 -3.7509155 15.343445 -9.8806305c3.8781128 -6.1296997 4.9744263 -13.453644 2.8179321 -18.825241" fill-rule="evenodd"/><path stroke="#000000" stroke-width="12.0" stroke-linejoin="round" stroke-linecap="butt" d="m493.14166 176.65245c5.496002 0.09312439 11.465363 -3.7509155 15.343445 -9.8806305c3.8781128 -6.1296997 4.9744263 -13.453644 2.8179321 -18.825241" fill-rule="evenodd"/><path fill="#000000" fill-opacity="0.0" d="m469.14166 168.65245c5.496002 0.09312439 11.465363 -3.7509155 15.343445 -9.8806305c3.8781128 -6.1296997 4.9744263 -13.453644 2.8179321 -18.825241l-13.816101 10.971329z" fill-rule="evenodd"/><path fill="#000000" fill-opacity="0.0" d="m469.14166 168.65245c5.496002 0.09312439 11.465363 -3.7509155 15.343445 -9.8806305c3.8781128 -6.1296997 4.9744263 -13.453644 2.8179321 -18.825241" fill-rule="evenodd"/><path stroke="#000000" stroke-width="12.0" stroke-linejoin="round" stroke-linecap="butt" d="m469.14166 168.65245c5.496002 0.09312439 11.465363 -3.7509155 15.343445 -9.8806305c3.8781128 -6.1296997 4.9744263 -13.453644 2.8179321 -18.825241" fill-rule="evenodd"/><path fill="#000000" fill-opacity="0.0" d="m509.14166 192.65245c5.4959717 0.09312439 11.465393 -3.7509155 15.343445 -9.8806305c3.8781128 -6.1296997 4.9744263 -13.453644 2.8179321 -18.825241l-13.816101 10.971329z" fill-rule="evenodd"/><path fill="#000000" fill-opacity="0.0" d="m509.14166 192.65245c5.4959717 0.09312439 11.465393 -3.7509155 15.343445 -9.8806305c3.8781128 -6.1296997 4.9744263 -13.453644 2.8179321 -18.825241" fill-rule="evenodd"/><path stroke="#000000" stroke-width="12.0" stroke-linejoin="round" stroke-linecap="butt" d="m509.14166 192.65245c5.4959717 0.09312439 11.465393 -3.7509155 15.343445 -9.8806305c3.8781128 -6.1296997 4.9744263 -13.453644 2.8179321 -18.825241" fill-rule="evenodd"/><path fill="#b7b7b7" d="m248.75328 592.3779l0 0c0 -52.810547 42.811447 -95.62201 95.622055 -95.62201l0 0c25.360535 0 49.682373 10.074432 67.61499 28.007019c17.932617 17.932617 28.00705 42.254456 28.00705 67.61499l0 0c0 52.810608 -42.811462 95.62207 -95.62204 95.62207l0 0c-52.810608 0 -95.622055 -42.811462 -95.622055 -95.62207z" fill-rule="evenodd"/><path stroke="#000000" stroke-width="16.0" stroke-linejoin="round" stroke-linecap="butt" d="m248.75328 592.3779l0 0c0 -52.810547 42.811447 -95.62201 95.622055 -95.62201l0 0c25.360535 0 49.682373 10.074432 67.61499 28.007019c17.932617 17.932617 28.00705 42.254456 28.00705 67.61499l0 0c0 52.810608 -42.811462 95.62207 -95.62204 95.62207l0 0c-52.810608 0 -95.622055 -42.811462 -95.622055 -95.62207z" fill-rule="evenodd"/><path fill="#000000" fill-opacity="0.0" d="m209.61673 729.9021l0 0c-21.900879 33.33087 -60.193832 53.724915 -101.53891 54.077515c-41.345085 0.3526001 -80.01695 -19.38501 -102.54366 -52.336975l101.45797 -62.650513z" fill-rule="evenodd"/><path fill="#000000" fill-opacity="0.0" d="m209.61673 729.9021l0 0c-21.900879 33.33087 -60.193832 53.724915 -101.53891 54.077515c-41.345085 0.3526001 -80.01695 -19.38501 -102.54366 -52.336975" fill-rule="evenodd"/><path stroke="#0000ff" stroke-width="16.0" stroke-linejoin="round" stroke-linecap="butt" d="m209.61673 729.9021l0 0c-21.900879 33.33087 -60.193832 53.724915 -101.53891 54.077515c-41.345085 0.3526001 -80.01695 -19.38501 -102.54366 -52.336975" fill-rule="evenodd"/><path fill="#000000" fill-opacity="0.0" d="m409.61673 729.9021l0 0c-21.900879 33.33087 -60.193817 53.724915 -101.53891 54.077515c-41.345093 0.3526001 -80.01695 -19.38501 -102.54367 -52.336975l101.45798 -62.650513z" fill-rule="evenodd"/><path fill="#000000" fill-opacity="0.0" d="m409.61673 729.9021l0 0c-21.900879 33.33087 -60.193817 53.724915 -101.53891 54.077515c-41.345093 0.3526001 -80.01695 -19.38501 -102.54367 -52.336975" fill-rule="evenodd"/><path stroke="#0000ff" stroke-width="16.0" stroke-linejoin="round" stroke-linecap="butt" d="m409.61673 729.9021l0 0c-21.900879 33.33087 -60.193817 53.724915 -101.53891 54.077515c-41.345093 0.3526001 -80.01695 -19.38501 -102.54367 -52.336975" fill-rule="evenodd"/><path fill="#000000" fill-opacity="0.0" d="m609.61676 729.9021l0 0c-21.90094 33.33087 -60.193848 53.724915 -101.53894 54.077515c-41.345093 0.3526001 -80.01694 -19.38501 -102.54367 -52.336975l101.45798 -62.650513z" fill-rule="evenodd"/><path fill="#000000" fill-opacity="0.0" d="m609.61676 729.9021l0 0c-21.90094 33.33087 -60.193848 53.724915 -101.53894 54.077515c-41.345093 0.3526001 -80.01694 -19.38501 -102.54367 -52.336975" fill-rule="evenodd"/><path stroke="#0000ff" stroke-width="16.0" stroke-linejoin="round" stroke-linecap="butt" d="m609.61676 729.9021l0 0c-21.90094 33.33087 -60.193848 53.724915 -101.53894 54.077515c-41.345093 0.3526001 -80.01694 -19.38501 -102.54367 -52.336975" fill-rule="evenodd"/><path fill="#000000" fill-opacity="0.0" d="m809.61676 729.9021l0 0c-21.90094 33.33087 -60.193848 53.724915 -101.53894 54.077515c-41.345093 0.3526001 -80.01697 -19.38501 -102.54364 -52.336975l101.45795 -62.650513z" fill-rule="evenodd"/><path fill="#000000" fill-opacity="0.0" d="m809.61676 729.9021l0 0c-21.90094 33.33087 -60.193848 53.724915 -101.53894 54.077515c-41.345093 0.3526001 -80.01697 -19.38501 -102.54364 -52.336975" fill-rule="evenodd"/><path stroke="#0000ff" stroke-width="16.0" stroke-linejoin="round" stroke-linecap="butt" d="m809.61676 729.9021l0 0c-21.90094 33.33087 -60.193848 53.724915 -101.53894 54.077515c-41.345093 0.3526001 -80.01697 -19.38501 -102.54364 -52.336975" fill-rule="evenodd"/></g></svg>