<svg version="1.1" viewBox="0.0 0.0 810.0 800.0" fill="none" stroke="none" stroke-linecap="square" stroke-miterlimit="10" xmlns:xlink="http://www.w3.org/1999/xlink" xmlns="http://www.w3.org/2000/svg"><clipPath id="p.0"><path d="m0 0l810.0 0l0 800.0l-810.0 0l0 -800.0z" clip-rule="nonzero"/></clipPath><g clip-path="url(#p.0)"><path fill="#000000" fill-opacity="0.0" d="m0 0l810.0 0l0 800.0l-810.0 0z" fill-rule="evenodd"/><path fill="#d9d9d9" d="m0 0l811.5276 0l0 800.0l-811.5276 0z" fill-rule="evenodd"/><path stroke="#000000" stroke-width="1.0" stroke-linejoin="round" stroke-linecap="butt" d="m0 0l811.5276 0l0 800.0l-811.5276 0z" fill-rule="evenodd"/><path fill="#000000" fill-opacity="0.0" d="m76.02362 98.67716l242.36221 0l0 280.8819l-242.36221 0z" fill-rule="evenodd"/><path fill="#000000" d="m271.17987 362.35715q-2.15625 16.828125 -8.65625 30.921875q-6.5 14.078125 -16.921875 24.171875q-10.40625 10.078125 -24.65625 15.65625q-14.25 5.578125 -31.75 5.578125q-15.0 0 -27.25 -4.25q-12.25 -4.25 -21.84375 -11.75q-9.578125 -7.5 -16.5 -17.65625q-6.90625 -10.171875 -11.5 -22.171875q-4.578125 -12.0 -6.828125 -25.15625q-2.25 -13.171875 -2.421875 -26.671875l0 -33.84375q0.171875 -13.5 2.421875 -26.65625q2.25 -13.171875 6.828125 -25.17186q4.59375 -12.0 11.5 -22.25q6.921875 -10.25 16.5 -17.75q9.59375 -7.5 21.75 -11.75q12.171875 -4.25 27.34375 -4.25q18.15625 0 32.484375 5.59375q14.34375 5.578125 24.671875 15.828125q10.328125 10.25 16.578125 24.59375q6.25 14.328125 8.25 31.656235l-30.828125 0q-1.5 -11.0 -5.171875 -20.499985q-3.65625 -9.5 -9.828125 -16.65625q-6.15625 -7.171875 -15.078125 -11.25q-8.921875 -4.09375 -21.078125 -4.09375q-11.0 0 -19.421875 3.59375q-8.421875 3.578125 -14.5 9.75q-6.078125 6.15625 -10.171875 14.328125q-4.078125 8.15625 -6.578125 17.32811q-2.5 9.15625 -3.59375 18.75q-1.078125 9.578125 -1.078125 18.578125l0 34.171875q0 9.0 1.078125 18.578125q1.09375 9.578125 3.59375 18.828125q2.5 9.25 6.5 17.421875q4.0 8.171875 10.15625 14.421875q6.171875 6.25 14.5 9.828125q8.34375 3.578125 19.515625 3.578125q12.15625 0 21.078125 -3.828125q8.921875 -3.828125 15.078125 -10.75q6.171875 -6.921875 9.828125 -16.328125q3.671875 -9.421875 5.171875 -20.421875l30.828125 0z" fill-rule="nonzero"/><path fill="#ff9900" d="m83.490814 465.53806l645.8583 0l0 245.92123l-645.8583 0z" fill-rule="evenodd"/><path fill="#b7b7b7" d="m294.38583 98.67716l434.9606 0l0 418.4882l-434.9606 0z" fill-rule="evenodd"/><path fill="#ffff00" d="m452.71396 369.68527l18.5 -176.98436l29.171875 0l-29.5 242.65623l-31.5 0l-31.171875 -182.82811l-31.5 182.82811l-31.65625 0l-29.5 -242.65623l29.328125 0l18.5 176.98436l31.171875 -176.98436l26.828125 0l31.328125 176.98436zm119.33017 39.5l118.671875 0l0 26.171875l-149.49994 0l0 -242.65623l30.828064 0l0 216.48436z" fill-rule="nonzero"/></g></svg>